<svg data-name="Layer 1" xmlns="http://www.w3.org/2000/svg" viewBox="0 0 219.24 45.01"><defs><style>.cls-1{fill:#47b6cc;}.cls-2{fill:#fff;}.cls-3{fill:#fd7062;}</style></defs><g data-name="Layer 2"><g id="Workspace"><path class="cls-1" d="M19.49,39A13.5,13.5,0,1,1,33,25.5,13.51,13.51,0,0,1,19.49,39Zm0-24A10.5,10.5,0,1,0,30,25.5,10.51,10.51,0,0,0,19.49,15Z"/><path class="cls-1" d="M29.87,27H9.11a1.5,1.5,0,1,1,0-3H29.87a1.5,1.5,0,1,1,0,3Z"/><path class="cls-1" d="M19.49,39c-3.94,0-6-6.79-6-13.5s2.06-13.5,6-13.5,6,6.79,6,13.5S23.43,39,19.49,39Zm0-24c-.87,0-3,3.68-3,10.5s2.13,10.5,3,10.5,3-3.68,3-10.5S20.36,15,19.49,15Z"/><path class="cls-2" d="M19.49,45A19.49,19.49,0,0,1,5.69,11.74a1.42,1.42,0,0,1,2-.23A1.57,1.57,0,0,1,8,13.68a16.51,16.51,0,1,0,23.2,23.5,16.51,16.51,0,0,0,0-23.34,1.5,1.5,0,0,1,2.13-2.12A19.5,19.5,0,0,1,19.49,45Z"/><path class="cls-3" d="M28.49,9h-15a1.5,1.5,0,0,1-1.06-.44l-3-3a1.51,1.51,0,0,1,0-2.12,1.49,1.49,0,0,1,2.12,0L14.11,6H28.49a1.5,1.5,0,0,1,0,3Z"/><path class="cls-3" d="M22.49,9a1.53,1.53,0,0,1-1.06-.44l-6-6a1.51,1.51,0,0,1,0-2.12,1.49,1.49,0,0,1,2.12,0l6,6A1.5,1.5,0,0,1,22.49,9Z"/></g></g><path class="cls-2" d="M64.54,16.89H58.13V34.25H53V16.89H46.71v-4H64.54Z"/><path class="cls-2" d="M74.63,26.7H71.84v7.55H66.7V12.92h8.4A9.38,9.38,0,0,1,81,14.6a5.72,5.72,0,0,1,2.14,4.76,6.9,6.9,0,0,1-.9,3.68,6.33,6.33,0,0,1-2.82,2.37L83.9,34v.22H78.39Zm-2.79-3.95H75.1A2.93,2.93,0,0,0,77.3,22,3,3,0,0,0,78,19.82a3,3,0,0,0-.75-2.16,2.85,2.85,0,0,0-2.19-.79H71.84Z"/><path class="cls-2" d="M98.39,30.26h-7l-1.23,4H84.62l7.82-21.33h4.83l7.89,21.33H99.63Zm-5.82-4h4.59l-2.3-7.4Z"/><path class="cls-2" d="M124.52,34.25h-5.11L111.85,21V34.25h-5.14V12.92h5.14l7.54,13.27V12.92h5.13Z"/><path class="cls-2" d="M138.77,28.58a2.11,2.11,0,0,0-.79-1.76,10,10,0,0,0-2.81-1.31,25.4,25.4,0,0,1-3.28-1.3c-2.76-1.36-4.15-3.22-4.15-5.59a5,5,0,0,1,1-3.13,6.63,6.63,0,0,1,2.92-2.11,11.41,11.41,0,0,1,4.25-.76,10.07,10.07,0,0,1,4.12.82,6.5,6.5,0,0,1,2.83,2.34,6.07,6.07,0,0,1,1,3.47h-5.13a2.61,2.61,0,0,0-.8-2,3.14,3.14,0,0,0-2.16-.71,3.57,3.57,0,0,0-2.18.6,1.87,1.87,0,0,0-.79,1.55,1.89,1.89,0,0,0,.87,1.49,11.2,11.2,0,0,0,3.1,1.37,20,20,0,0,1,3.63,1.53,6.12,6.12,0,0,1,3.46,5.5,5.22,5.22,0,0,1-2.11,4.39,9.37,9.37,0,0,1-5.79,1.6,11.45,11.45,0,0,1-4.69-.93,7.06,7.06,0,0,1-3.17-2.55,6.62,6.62,0,0,1-1.06-3.73h5.16a3.28,3.28,0,0,0,.88,2.53,4.2,4.2,0,0,0,2.88.81,3.26,3.26,0,0,0,2-.55A1.78,1.78,0,0,0,138.77,28.58Z"/><path class="cls-1" d="M151.69,27v7.24h-5.14V12.92h8.51a9.91,9.91,0,0,1,4.33.9,6.76,6.76,0,0,1,2.92,2.56,7,7,0,0,1,1,3.77,6.17,6.17,0,0,1-2.24,5A9.21,9.21,0,0,1,155,27Zm0-4h3.37a3.16,3.16,0,0,0,2.28-.75,2.78,2.78,0,0,0,.78-2.11,3.4,3.4,0,0,0-.8-2.38,2.85,2.85,0,0,0-2.2-.91h-3.43Z"/><path class="cls-1" d="M175.58,30.26h-7l-1.23,4h-5.5l7.83-21.33h4.83l7.88,21.33h-5.52Zm-5.81-4h4.58l-2.3-7.4Z"/><path class="cls-1" d="M191.16,26.31l-2.11,2.31v5.63h-5.14V12.92h5.14v9.4l1.78-2.71,4.6-6.69h6.36l-7.21,9.43,7.21,11.9H195.7Z"/><path class="cls-1" d="M214.1,28.58a2.11,2.11,0,0,0-.8-1.76,9.9,9.9,0,0,0-2.81-1.31,25.4,25.4,0,0,1-3.28-1.3q-4.14-2-4.14-5.59a5,5,0,0,1,1-3.13A6.68,6.68,0,0,1,207,13.38a11.45,11.45,0,0,1,4.25-.76,10,10,0,0,1,4.12.82,6.59,6.59,0,0,1,2.84,2.34,6.14,6.14,0,0,1,1,3.47h-5.13a2.61,2.61,0,0,0-.8-2,3.14,3.14,0,0,0-2.16-.71,3.52,3.52,0,0,0-2.17.6,1.85,1.85,0,0,0-.8,1.55,1.88,1.88,0,0,0,.88,1.49,11,11,0,0,0,3.09,1.37,20,20,0,0,1,3.63,1.53,6.1,6.1,0,0,1,3.46,5.5,5.22,5.22,0,0,1-2.11,4.39,9.37,9.37,0,0,1-5.79,1.6,11.45,11.45,0,0,1-4.69-.93,7.11,7.11,0,0,1-3.17-2.55,6.62,6.62,0,0,1-1.06-3.73h5.16a3.28,3.28,0,0,0,.88,2.53,4.2,4.2,0,0,0,2.88.81,3.32,3.32,0,0,0,2-.55A1.81,1.81,0,0,0,214.1,28.58Z"/></svg>